<svg xmlns="http://www.w3.org/2000/svg" width="512" height="512" viewBox="0 0 512 512" version="1.1">
	<path d="M 423.500 88 L 455.488 120 417.244 120 C 396.210 120, 379 120.380, 379 120.845 C 379 122.240, 382.340 124.826, 386.254 126.462 C 389.315 127.741, 395.504 128, 422.968 128 L 456 128 456 292 L 456 456 312 456 L 168 456 168 472 L 168 488 328 488 L 488 488 488 272 L 488 56 439.756 56 L 391.512 56 423.500 88 M 24 256 L 24 336 80 336 L 136 336 136 340 L 136 344 284 344 L 432 344 432 264 L 432 184 428 184 L 424 184 424 180 L 424 176 224 176 L 24 176 24 256 M 42.455 202.455 L 40 204.909 40 258.455 L 40 312 48 312 L 56 312 56 264 L 56 216 64 216 L 72 216 72 240 L 72 264 80 264 L 88 264 88 240 L 88 216 96 216 L 104 216 104 264 L 104 312 112 312 L 120 312 120 258.455 L 120 204.909 117.545 202.455 L 115.091 200 80 200 L 44.909 200 42.455 202.455 M 136 208 L 136 216 152 216 L 168 216 168 256 L 168 296 152 296 L 136 296 136 304 L 136 312 176 312 L 216 312 216 304 L 216 296 200 296 L 184 296 184 256 L 184 216 200 216 L 216 216 216 208 L 216 200 176 200 L 136 200 136 208 M 234.455 202.455 L 232 204.909 232 256 L 232 307.091 234.455 309.545 L 236.909 312 264.089 312 C 282.505 312, 292.595 311.608, 295.384 310.784 C 300.877 309.161, 309.161 300.877, 310.784 295.384 C 312.490 289.608, 312.490 222.392, 310.784 216.616 C 309.161 211.123, 300.877 202.839, 295.384 201.216 C 292.595 200.392, 282.505 200, 264.089 200 L 236.909 200 234.455 202.455 M 328 208 L 328 216 344 216 L 360 216 360 256 L 360 296 344 296 L 328 296 328 304 L 328 312 368 312 L 408 312 408 304 L 408 296 392 296 L 376 296 376 256 L 376 216 392 216 L 408 216 408 208 L 408 200 368 200 L 328 200 328 208 M 248 256 L 248 296 269.545 296 C 291.088 296, 291.091 296, 293.545 293.545 L 296 291.091 296 256 L 296 220.909 293.545 218.455 C 291.091 216, 291.088 216, 269.545 216 L 248 216 248 256" stroke="none" fill="black" fill-rule="evenodd"/>
</svg>